<?xml version="1.0" encoding="utf-8"?>
<!-- Generator: Adobe Illustrator 26.3.1, SVG Export Plug-In . SVG Version: 6.00 Build 0)  -->
<svg version="1.1" id="Layer_1" xmlns="http://www.w3.org/2000/svg" xmlns:xlink="http://www.w3.org/1999/xlink" x="0px" y="0px"
	 viewBox="0 0 588.3 610.9" style="enable-background:new 0 0 588.3 610.9;" xml:space="preserve">
<style type="text/css">
	.st0{opacity:0.1;fill:#181818;enable-background:new    ;}
	.st1{fill:#EEA540;}
	.st2{fill:#E0752B;}
	.st3{fill:#181818;}
	.st4{fill:#91CA73;}
	.st5{fill:#65B345;}
	.st6{fill:#BF2049;}
	.st7{fill:#E7262B;}
	.st8{opacity:0.5;fill:#FFFFFF;enable-background:new    ;}
	.st9{fill:#F192BB;}
	.st10{fill:#D0518D;}
	.st11{fill:#FFE9D2;}
	.st12{fill:#FBE144;}
	.st13{fill:#F9CEAB;}
	.st14{fill:#E4BB22;}
	.st15{fill-rule:evenodd;clip-rule:evenodd;fill:#181818;stroke:#181818;stroke-miterlimit:10;}
	.st16{fill:#FFFFFF;}
	.st17{fill:#494647;}
</style>
<g>
	<path class="st0" d="M497.1,491.5c0,19.2-82.5,24.7-184.3,24.7s-184.3-5.5-184.3-24.7s11.9-63.7,184.3-63.7
		S497.1,472.3,497.1,491.5z"/>
	<g>
		<circle class="st1" cx="463.7" cy="206.2" r="63"/>
		<path class="st2" d="M463.7,143.2c-20.8,0-39.3,10.1-50.7,25.7c10.5-7.7,23.4-12.3,37.4-12.3c34.8,0,63,28.2,63,63
			c0,14-4.6,26.9-12.3,37.4c15.6-11.5,25.7-29.9,25.7-50.7C526.8,171.4,498.5,143.2,463.7,143.2z"/>
		<g>
			<path class="st3" d="M463.7,143.2c34.8,0,63,28.2,63,63s-28.2,63-63,63s-63-28.2-63-63S428.9,143.2,463.7,143.2 M463.7,137.4
				c-38,0-68.8,30.9-68.8,68.8s30.9,68.8,68.8,68.8s68.8-30.9,68.8-68.8S501.7,137.4,463.7,137.4L463.7,137.4z"/>
		</g>
	</g>
	<g>
		<g>
			<g>
				<g>
					<g>
						<path class="st4" d="M170.3,175.9c0.3,0.4,0.9,0.5,1.4,0.2c3.3-2.1,15.9-11.4,18.7-29.8c2.8-17.9-4.7-38.7-7.1-44.6
							c-0.3-0.7-1.3-0.9-1.8-0.3c-4,4.9-17.4,22.5-20.2,40.4C158.6,160.2,167.8,172.9,170.3,175.9z"/>
					</g>
				</g>
			</g>
			<path class="st5" d="M175.7,165.1c-0.4,0.3-1,0.2-1.4-0.2c-2.5-3-11.7-15.7-8.9-34c0.3-1.8,0.7-3.7,1.2-5.5
				c-2.4,5.2-4.3,10.8-5.2,16.5c-2.8,18.3,6.4,31,8.9,34c0.3,0.4,0.9,0.5,1.4,0.2c3.1-2,14.6-10.5,18.2-26.9
				C185,158.5,178,163.6,175.7,165.1z"/>
			<g>
				<g>
					<g>
						<path class="st3" d="M182.5,103c0.4,0,0.8,0.2,0.9,0.6c2.2,5.6,9.5,25.7,6.8,43c-2.7,17.7-14.9,26.6-18,28.7
							c-0.2,0.1-0.4,0.2-0.5,0.2c-0.3,0-0.6-0.1-0.8-0.4c-2.4-2.9-11.3-15.1-8.6-32.8c2.7-17.3,15.6-34.2,19.4-38.9
							C181.9,103.1,182.2,103,182.5,103 M182.5,96c-2.4,0-4.7,1.1-6.2,2.9c-4.2,5.1-18,23.3-20.9,42.3c-3.1,20.3,6.9,34.5,10.1,38.3
							c1.5,1.9,3.8,2.9,6.2,2.9c1.6,0,3.1-0.4,4.4-1.3c4.2-2.7,18-13.1,21.1-33.5c2.9-19-4.8-40.5-7.2-46.6
							C188.7,98,185.8,96,182.5,96L182.5,96z"/>
					</g>
				</g>
			</g>
		</g>
		<g>
			<g>
				<path class="st6" d="M241.9,192.9c22.6,48.1,7.6,94-22.8,88.6c-13,25.3-59.3,10.9-82.8-39.1c-13.7-29.1,5.4-53.4,34.8-58.2
					C197.4,163,228.2,163.8,241.9,192.9z"/>
				<g>
					<path class="st3" d="M169.1,185.3c-0.1-0.1-7.7-14.3-18-19c-11.8-5.5-24,1.4-24.1,1.5c-2.4,1.5-5.5,0.9-7.1-1.5
						s-0.9-5.5,1.5-7.1c0.6-0.4,14.7-9.4,31.5-1.5c14.1,6.6,21,25,21.3,25.7C175.1,185.9,170,188,169.1,185.3z"/>
				</g>
				<path class="st7" d="M227.6,206.4c-8.6-18.2-26.2-29.2-44.7-29.9c-3.9,2.1-7.8,4.8-11.6,7.8c-29.4,4.8-48.5,29-34.8,58.2
					c6.2,13.2,13.9,23.7,22.1,31.5c13.6,7.1,30.2,8,45,1C228.9,263,239.7,232.3,227.6,206.4z"/>
				<g>
					<g>
						<path class="st3" d="M207.7,169.5c14.2,0,26.8,7.4,34.3,23.4c21.4,45.6,9.1,89.1-18,89.1c-1.5,0-3.1-0.1-4.7-0.4
							c-4.2,8.2-11.9,12.2-21.2,12.2c-17.9,0-41.7-15-57.8-43.9c-0.1-0.1-0.1-0.3-0.2-0.4c-0.3-0.5-0.6-1.1-0.9-1.7
							c-0.1-0.2-0.2-0.4-0.4-0.7c-0.3-0.5-0.5-1-0.8-1.6c-0.1-0.3-0.3-0.5-0.4-0.8c-0.3-0.7-0.7-1.4-1-2c-0.1-0.1-0.1-0.2-0.2-0.3
							c-8.6-18.2-4.3-34.5,7.3-45.3c0.1-0.1,0.1-0.1,0.2-0.2c2.3-2.1,4.8-4,7.6-5.6c2.1-1.3,4.4-2.4,6.8-3.4c4-1.6,8.3-2.9,12.9-3.6
							c0.9-0.7,1.8-1.4,2.7-2.1c0.2-0.1,0.4-0.3,0.6-0.4c0.8-0.6,1.5-1.1,2.3-1.6c0.2-0.1,0.3-0.2,0.5-0.3c0.8-0.6,1.7-1.1,2.5-1.6
							c0.1-0.1,0.2-0.1,0.2-0.2c0.9-0.6,1.9-1.1,2.8-1.6l0,0l0,0C191.2,171.9,199.7,169.5,207.7,169.5 M207.7,162.5
							c-9.1,0-18.9,2.7-28.2,7.8h-0.1l0,0c-1,0.5-2,1.1-3,1.7l-0.2,0.1c-0.9,0.6-1.9,1.2-2.8,1.8l-0.1,0.1c-0.1,0.1-0.3,0.2-0.4,0.3
							c-0.8,0.5-1.6,1.1-2.5,1.8l-0.2,0.1c-0.1,0.1-0.3,0.2-0.4,0.3c-0.5,0.4-1,0.8-1.5,1.1c-4.4,0.8-8.6,2.1-12.6,3.7
							c-2.7,1.1-5.3,2.4-7.8,3.9c-3.2,1.9-6.1,4.1-8.7,6.5c-0.1,0.1-0.2,0.2-0.3,0.3c-14.7,13.8-18,33.8-8.8,53.4l0.1,0.3v0.1
							c0.3,0.7,0.7,1.4,1,2.1c0.1,0.2,0.2,0.4,0.3,0.6l0.1,0.3v0.1c0.3,0.5,0.5,1,0.8,1.5c0.1,0.2,0.2,0.3,0.3,0.5l0.1,0.2
							c0.3,0.6,0.6,1.2,0.9,1.8l0.2,0.3l0.1,0.1c8,14.5,18.5,26.6,30.2,35.1c11.1,8,23.1,12.4,33.7,12.4c10.4,0,19.2-4.3,24.8-11.8
							c0.4,0,0.7,0,1.1,0c11,0,20.7-5.6,27.2-15.9c6-9.5,9-22.2,8.7-36.7c-0.3-15-4.3-31.1-11.5-46.4c-4.2-8.9-9.9-15.8-17.1-20.5
							C224.2,164.8,216.3,162.5,207.7,162.5L207.7,162.5z"/>
					</g>
				</g>
			</g>
			<path class="st8" d="M155.9,215.1c-3.6,6.2-9.5,9.5-13.1,7.4s-5-8.9-1.4-15.1c3.6-6.2,10.7-9.5,14.4-7.4S159.5,208.9,155.9,215.1
				z"/>
		</g>
	</g>
	<g>
		<g>
			<g>
				<path class="st9" d="M205.6,289.7l-28.8,23.7l-2.1,1.8l1.8,2.1l11,13.4l0,0c3.5,4.3,8.5,6.7,13.6,7.2s10.5-0.9,14.8-4.5l0,0
					l2-1.6c4.3-3.5,6.7-8.5,7.2-13.6s-0.9-10.5-4.5-14.8l-11-13.4l-1.8-2.1L205.6,289.7z"/>
				<path class="st10" d="M198.4,328.7L198.4,328.7l-11-13.4l-1.8-2.1l2.1-1.8l23.4-19.2l-1.7-2.1l-1.8-2.1l-2.1,1.8l-28.8,23.7
					l-2.1,1.8l1.8,2.1l11,13.4l0,0c3.5,4.3,8.5,6.7,13.6,7.2c3.7,0.4,7.5-0.3,10.9-2C206.8,335.4,201.9,333,198.4,328.7z"/>
				<g>
					<path class="st3" d="M207.7,288l1.8,2.1l11,13.4c3.5,4.3,5,9.6,4.5,14.8c-0.5,5.1-3,10.1-7.2,13.6l-2,1.6
						c-3.7,3.1-8.3,4.6-12.8,4.6c-0.7,0-1.3,0-2-0.1c-5.1-0.5-10.1-3-13.6-7.2l0,0l-11-13.4l-1.8-2.1l2.1-1.8l28.8-23.7L207.7,288
						 M208.7,278.1l-5.4,4.4l-2.1,1.8L172.3,308l-2.1,1.8l-5.4,4.4l4.4,5.4l1.8,2.1l11,13.4c4.6,5.6,11.1,9.1,18.3,9.8
						c0.9,0.1,1.8,0.1,2.7,0.1c6.3,0,12.4-2.2,17.2-6.1l2-1.6c5.6-4.6,9.1-11.1,9.8-18.3c0.7-7.2-1.4-14.3-6-19.9l-11-13.4l-1.8-2.1
						L208.7,278.1L208.7,278.1z"/>
				</g>
				<polygon class="st11" points="75.8,194.9 82.3,202.8 82.3,202.8 82.7,199.2 83.1,195.3 87,195.6 90.6,196 91,192.4 91.3,188.5 
					95.3,188.9 98.9,189.2 99.2,185.6 99.6,181.7 103.5,182.1 107.1,182.4 107.5,178.8 107.9,174.9 111.8,175.3 115.4,175.6 
					115.4,175.5 108.9,167.6 108.4,167.1 107.5,166.4 67,146.4 61.5,143.7 63.1,149.6 74.8,193.2 75.3,194.3 				"/>
				<polygon class="st12" points="209.5,290.1 112.5,172 115.4,175.5 115.4,175.6 111.8,175.3 107.9,174.9 107.5,178.8 107.1,182.4 
					103.5,182.1 99.6,181.7 99.2,185.6 98.9,189.2 95.3,188.9 91.3,188.5 91,192.4 90.6,196 87,195.6 83.1,195.3 82.7,199.2 
					82.3,202.8 82.3,202.8 76.3,195.5 176.4,317.3 178.1,319.5 180.3,317.7 209.1,294 211.3,292.3 				"/>
				<g>
					<g>
						<path class="st3" d="M61.5,143.7L61.5,143.7L61.5,143.7l19.1,9.4l26.9,13.3l0.9,0.7l0.4,0.5l2.1,2.5l98.6,120l1.8,2.1
							l-2.1,1.8l-28.8,23.7l-2.1,1.8l-1.8-2.1l-101-123l-0.5-1L61.5,143.7L61.5,143.7 M50.7,130.5l2.9,10.6l0,0l1.2,4.4l13.3,49.6
							l0.2,0.7l0.3,0.7l0.5,1l0.3,0.7l0.5,0.6l101,123l1.8,2.1l4.4,5.4l5.4-4.4l2.1-1.8l28.8-23.7l2.1-1.8l5.4-4.4l-4.4-5.4
							l-1.8-2.1l-98.6-120l-2.1-2.5l-0.4-0.5l-0.5-0.6l-0.6-0.5l-0.9-0.7l-0.6-0.4l-0.7-0.3l-26.9-13.3l-19.1-9.4L50.7,130.5
							L50.7,130.5z"/>
					</g>
				</g>
			</g>
			<g>
				<path class="st13" d="M82.3,202.8l0.4-3.6l0.4-3.9l3.9,0.4l3.6,0.4V196c-4.9-8.2-8.7-17.1-11.2-26.3L74,150l-7-3.4l-5.5-2.7
					l1.6,5.9l11.7,43.7l0.5,1l1.2,1.4L82.3,202.8L82.3,202.8z"/>
				<path class="st14" d="M90.6,195.9v0.1l-3.6-0.4l-3.9-0.4l-0.4,3.9l-0.4,3.6l0,0l-5.8-7.1l99.9,121.6l1.8,2.1l2.1-1.8l5.3-4.4
					L99.7,208.5C96.3,204.7,93.3,200.4,90.6,195.9z"/>
			</g>
		</g>
		<polygon class="st15" points="82.8,154.2 61.5,143.7 67.7,166.6 		"/>
	</g>
	<g>
		<g>
			<path class="st4" d="M310.3,289H125.1l23.6,138.9c2.9,19.8,19.9,34.6,39.9,34.6h121.7H432c20,0,37.1-14.7,39.9-34.6L495.5,289
				H310.3z"/>
			<path class="st4" d="M309.3,289H124.1l23.6,138.9c2.9,19.8,19.9,34.6,39.9,34.6h121.7H431c20,0,37.1-14.7,39.9-34.6L494.5,289
				H309.3z"/>
			<path class="st5" d="M440,442.5H318.3H196.6c-20,0-37.1-14.7-39.9-34.6L136.5,289h-11.4l23.6,138.9c2.9,19.8,19.9,34.6,39.9,34.6
				h121.7H432c20,0,37.1-14.7,39.9-34.6l0.2-1.5C464.7,436.2,453,442.5,440,442.5z"/>
			<g>
				<path class="st3" d="M495.5,289l-23.6,138.9c-2.9,19.8-19.9,34.6-39.9,34.6H310.3H188.6c-20,0-37.1-14.7-39.9-34.6L125.1,289
					h185.2H495.5 M503.8,282h-8.3H310.3H125.1h-8.3l1.4,8.2L141.8,429c1.7,11.2,7.3,21.5,15.9,28.9s19.6,11.5,31,11.5h121.7h121.7
					c11.4,0,22.4-4.1,31-11.5s14.2-17.7,15.9-28.9l23.6-138.8L503.8,282L503.8,282z"/>
			</g>
		</g>
		<g>
			<g>
				<g>
					<g>
						<path class="st3" d="M426.3,356.7c0,14-11.3,25.3-25.3,25.3s-25.3-11.3-25.3-25.3s11.3-25.3,25.3-25.3
							C415,331.4,426.3,342.8,426.3,356.7z M223.6,331.4c-14,0-25.3,11.3-25.3,25.3s11.3,25.3,25.3,25.3s25.3-11.3,25.3-25.3
							C248.9,342.8,237.5,331.4,223.6,331.4z"/>
					</g>
					<g>
						<path class="st3" d="M312.3,411.1c-13,0-25.4-2.8-36-8.2c-4.1-2.1-5.7-7-3.7-11.1c2.1-4.1,7-5.7,11.1-3.7
							c8.3,4.2,18.2,6.4,28.6,6.4c10.4,0,20.3-2.2,28.6-6.4c4.1-2.1,9.1-0.4,11.1,3.7c2.1,4.1,0.4,9.1-3.7,11.1
							C337.7,408.3,325.3,411.1,312.3,411.1z"/>
					</g>
				</g>
			</g>
			<g>
				<circle class="st16" cx="216.2" cy="346.2" r="6.2"/>
				<circle class="st16" cx="394.5" cy="346.2" r="6.2"/>
			</g>
		</g>
	</g>
	<g>
		<g>
			<g>
				<path class="st4" d="M513.4,289H107.2c-3,0-5.5-2.5-5.5-5.5v-31.1c0-3,2.5-5.5,5.5-5.5h406.2c3,0,5.5,2.5,5.5,5.5v31.1
					C518.9,286.6,516.4,289,513.4,289z"/>
			</g>
		</g>
		<path class="st5" d="M115.2,279c-3,0-5.5-2.5-5.5-5.5V247h-2.5c-3,0-5.5,2.5-5.5,5.5v31.1c0,3,2.5,5.5,5.5,5.5h406.2
			c3,0,5.5-2.5,5.5-5.5V279H115.2z"/>
		<g>
			<g>
				<path class="st3" d="M513.4,247c3,0,5.5,2.5,5.5,5.5v31.1c0,3-2.5,5.5-5.5,5.5H107.2c-3,0-5.5-2.5-5.5-5.5v-31.1
					c0-3,2.5-5.5,5.5-5.5H513.4 M513.4,240H107.2c-6.9,0-12.5,5.6-12.5,12.5v31.1c0,6.9,5.6,12.5,12.5,12.5h406.2
					c6.9,0,12.5-5.6,12.5-12.5v-31.1C525.9,245.6,520.3,240,513.4,240L513.4,240z"/>
			</g>
		</g>
	</g>
	<g>
		<g>
			<g>
				<path class="st3" d="M419.7,193.7l-169.8-30.2l-9.3,54.6h0.1c-0.2,0.6-0.4,1.2-0.5,1.8c-3.1,18,32.5,39.3,79.4,47.7
					c46.9,8.3,87.4,0.5,90.5-17.5c0.1-0.6,0.2-1.3,0.2-1.9h0.1L419.7,193.7z"/>
			</g>
		</g>
		<g>
			<g>
				<path class="st17" d="M184.3,141.5l152.3-24.9c5.8-0.9,11.9,0.1,17,3l135.1,76c2.6,1.5,2,5-0.9,5.5L335.5,226
					c-5.8,0.9-11.9-0.1-17-3l-135.1-76C180.7,145.5,181.3,142,184.3,141.5z"/>
			</g>
		</g>
		
			<ellipse transform="matrix(0.4375 -0.8992 0.8992 0.4375 34.7884 395.5884)" class="st3" cx="333.6" cy="170" rx="9.2" ry="23.5"/>
		<g>
			<g>
				<path class="st3" d="M340.7,116.2c4.5,0,9,1.2,12.9,3.4l135.1,76c2.6,1.5,2,5-0.9,5.5L335.5,226c-1.4,0.2-2.8,0.3-4.2,0.3
					c-4.5,0-9-1.2-12.9-3.4l-135.1-76c-2.6-1.5-2-5,0.9-5.5l152.3-24.9C337.9,116.3,339.3,116.2,340.7,116.2 M340.7,109.2
					c-1.8,0-3.5,0.1-5.3,0.4l-152.2,25c-4.3,0.7-7.6,3.9-8.3,8c-0.7,4.2,1.3,8.3,5.1,10.4l135.1,76c5,2.8,10.6,4.3,16.3,4.3
					c1.8,0,3.5-0.1,5.3-0.4L489,208c4.3-0.7,7.6-3.9,8.3-8c0.7-4.2-1.3-8.3-5.1-10.4l-135.1-76C352.1,110.7,346.4,109.2,340.7,109.2
					L340.7,109.2z"/>
			</g>
		</g>
		<g>
			<g>
				<path class="st12" d="M426.2,266.4c-1.6,0.1-3.2-1-3.4-2.4l-6.9-45c-0.5-3-2.6-5.8-5.6-7.3l-75.4-38.1c-1.5-0.7-2-2.4-1.3-3.7
					c0.8-1.3,2.6-1.7,4-1L413,207c4.8,2.4,8,6.7,8.8,11.4l6.9,45C429,264.9,427.9,266.2,426.2,266.4z"/>
			</g>
		</g>
		<path class="st12" d="M443.5,300.6c0.8-0.4,1.3-1.2,1.2-2c-5.7-46.4-20.1-42-20.1-42s-12.3-1-6.7,43.8c0.1,0.9,0.9,1.7,1.9,1.9
			c1.8,0.4,5.2,0.7,11.6,0.5C438.3,302.5,441.8,301.4,443.5,300.6z"/>
		<g>
			<path class="st3" d="M336.2,168.5c0.5,0,1,0.1,1.5,0.4l75.4,38.1c4.8,2.4,8,6.7,8.8,11.4l5.9,38.4c4.6,1.6,12.9,9.1,16.9,41.7
				c0.1,0.8-0.3,1.6-1.2,2c-1.6,0.8-5.2,1.9-12.2,2.2c-1.6,0.1-2.9,0.1-4.2,0.1c-3.8,0-6.1-0.3-7.4-0.5c-1-0.2-1.8-1-1.9-1.9
				c-3.8-30.8,0.8-39.9,4-42.7l-6-38.8c-0.5-3-2.6-5.8-5.6-7.3l-75.4-38.1c-1.5-0.7-2-2.4-1.3-3.7
				C334.2,169,335.1,168.5,336.2,168.5 M336.2,161.5c-3.5,0-6.8,1.8-8.5,4.8c-1.3,2.2-1.7,4.9-0.9,7.4c0.8,2.6,2.6,4.8,5.1,6.1
				l75.4,38.1c1,0.5,1.7,1.3,1.8,2.1l5.5,35.7c-5.2,7.8-6.4,22.9-3.6,45.6c0.5,3.9,3.5,7.1,7.5,7.9c2.2,0.5,5.2,0.7,8.8,0.7
				c1.4,0,2.9,0,4.5-0.1c6.5-0.3,11.5-1.2,14.9-2.8c3.5-1.7,5.6-5.4,5.1-9.2c-3-24.1-8.8-39.3-17.4-45.4l-5.4-35
				c-1.1-7-5.8-13.2-12.5-16.6l-75.4-38.1C339.4,161.9,337.8,161.5,336.2,161.5L336.2,161.5z"/>
		</g>
		<path class="st14" d="M435.3,295.1c-6.4,0.3-9.8-0.1-11.6-0.5c-1-0.2-1.8-1-1.9-1.9c-2.2-18.1-1.6-28.7,0-34.9
			c-3.3,2.8-7.8,12-4,42.6c0.1,0.9,0.9,1.7,1.9,1.9c1.8,0.4,5.2,0.7,11.6,0.5c7-0.3,10.5-1.4,12.2-2.2c0.8-0.4,1.3-1.2,1.2-2
			c-0.2-1.6-0.4-3.1-0.6-4.5C442,294.5,439.2,294.9,435.3,295.1z"/>
	</g>
</g>
</svg>
